<svg xmlns="http://www.w3.org/2000/svg" viewBox="0.0 0.0 533.65 615.26" width="294.58387772746346" height="339.46189035000674">
  <defs>
    <style>
      .cls-1 {
        fill: #031f2d;
      }

      .cls-2 {
        fill: #fff;
      }

      .cls-3 {
        fill: #ffb71a;
      }

      .cls-4 {
        fill: #ff6a1f;
      }

      .cls-5 {
        fill: #009adf;
      }

      .cls-6 {
        fill: #c1d9e7;
      }

      .cls-7 {
        fill: #da001c;
      }
    </style>
  </defs>
  <g>
    <g>
      <path class="cls-1" d="M482.53,419.93V216.21s50.94-77.21,50.94-77.21c0,0-48.56-17.77-64.95-22.71V20.96h-154.92c-11.48-12.86-28.18-20.96-46.77-20.96s-35.29,8.1-46.77,20.96H65.13V116.25C48.72,121.23,0,139.06,0,139.06l51.12,77.23v203.72S.19,497.21,.19,497.21c0,0,48.56,17.77,64.95,22.71v95.33H468.52v-95.3c16.37-4.97,65.14-22.8,65.14-22.8l-51.12-77.23Z"/>
      <g>
        <path class="cls-4" d="M468.97,423.22c.01-4.76,.03-83.3,.03-83.3l-.4,.16s-10.96,4.31-12.78,5v-40.21c-4.25-1.67-8.51-3.28-12.78-4.83l.05,.06v49.68c-34.09,12.1-67.19,20.01-98.84,24.71-3.34,4.64-7.09,8.96-11.2,12.92,69.28-8.57,123.82-30.65,124.39-30.87l.22,70.14s33.35,50.48,37.9,57.37c-.05,.02-.09,.03-.13,.05-24.08,9.61-113.03,40.19-228.48,40.19-105.97,0-177.77-21.82-228.75-40.23h0s0-.02,0-.02c5.92-8.91,37.85-57.33,37.85-57.33v-70.25c40.14,15.05,81.82,25.34,124.36,30.7-4.08-3.97-7.81-8.29-11.13-12.93-38.8-5.81-72.22-15.17-98.64-24.46v-49.7c-4.51,1.63-8.8,3.25-12.86,4.85l.12,.07v40.09h0c-2.1-.79-13.15-5.17-13.15-5.17v83.39s0,0,0,0c-5,7.51-43.87,66.37-43.87,66.37l.37,.13s97.55,45.82,245.69,45.82,245.42-45.77,245.42-45.77l.43-.16s-36.28-54.87-43.82-66.37v-.12h0ZM64.75,212.9v83.39s21.15-8.12,25.88-9.78v-.06c26.65-9.37,60.43-18.81,99.66-24.62,.03,0,.06-.02,.08-.02,.03,0,.05,0,.08-.01,3.5-4.68,7.41-9.01,11.69-12.97-.03,0-.06,0-.09,.01-72.46,8.94-125.39,30.68-126.01,30.91v-70.25s-30.13-45.71-37.85-57.33h0v-.02c20.68-7.47,93.75-33.69,190.45-39.09-4.02-3.1-7.65-6.67-10.81-10.63-42.88,3.04-85.35,10.19-127.19,21.41V47.14h115.68c1.19-4.46,2.87-8.72,4.96-12.73H77.9V127.38c-19.7,5.69-57.03,19.14-57.03,19.14,0,0,38.97,59.01,43.87,66.37,0,0,0,0,0,0h0Zm430.8-60.74c-4.49,6.81-37.9,57.37-37.9,57.37v.05s-.03,55.87-.02,70.16c-.1-.04-55.7-22.62-126.25-31.15-.03,0-.06,0-.09-.01,4.3,3.95,8.24,8.29,11.76,12.96,.03,0,.05,0,.08,.01,.07,0,.13,.02,.2,.03,68.02,9.73,125.25,34.55,125.25,34.55l.4,.16s-.03-74.13-.03-83.32v-.1c5.82-8.88,43.82-66.37,43.82-66.37l-.43-.16s-31.27-11.65-56.54-18.9V34.41h-133.38c2.09,4.01,3.77,8.27,4.96,12.73h115.68V123.92s-.09-.03-.13-.03c-67.58-18.18-125.25-21.18-127.18-21.32-3.17,3.95-6.81,7.51-10.83,10.59,10.9,.64,112.71,7.79,190.49,38.94,.05,.02,.09,.03,.13,.05h0Zm-52.48,436.92H90.63v-61.75c-4.34-1.13-8.58-2.27-12.73-3.43v77.91H455.81v-77.76l.04-.05c-4.25,1.2-8.51,2.36-12.77,3.48v61.6h0Z"/>
        <path class="cls-7" d="M38.18,152.15c62.98-22.74,127.21-35.56,190.45-39.09-4.02-3.1-7.65-6.67-10.81-10.63l-2.15,5.91c-71.96,5.65-131.41,23.1-131.41,23.1-2.45,.68-33.56,9.97-54.74,17.87l8.66,2.85h0ZM90.63,47.14h115.68c1.19-4.46,2.87-8.72,4.96-12.73l-9.55,6.37h0s-117.46,0-117.46,0v90.66l6.37-7.6V47.14Zm358.82-6.36h-117.49l-4.57,6.36h115.68l6.37-6.36Zm6.36,86.66V34.41l-6.36,6.37v90.75l6.36-4.09ZM190.29,261.83s.06-.02,.08-.02c.03,0,.05,0,.08-.01,3.5-4.68,7.41-9.01,11.69-12.97-.03,0-.06,0-.09,.01-.09,.07-.16,.14-.24,.23l-.07-.07-16.97,7.83c-38.66,5.91-76.94,16.33-114.38,31.14l-5.64,8.31c21.76-8.28,62.15-25.09,125.54-34.46Zm273.02,26.15c-.17-.07-49.16-21.39-114.53-31.28l-5.72,4.85c35.98,5.14,80.41,16.32,125.94,34.75l-.03-83.42,43.79-66.33s.03-.04,.03-.04c0,0-8.68,2.78-8.59,2.81-10.12,15.43-30.79,46.46-40.88,61.89v76.78Zm32.25-135.82l8.63-2.85c-12.93-4.82-84.81-32.72-186.89-41l-12.37,4.86c10.9,.64,112.71,7.79,190.49,38.94,.05,.02,.09,.03,.13,.05ZM90.63,527.33s-6.37,3.36-6.37,3.36v64.75l6.37-6.36v-61.75Zm-20.24-316.13v76.78s5.65-8.23,5.65-8.23v-70.25l-5.65,1.69c-10.26-15.42-30.58-46.45-40.87-61.88,.05-.02-8.65-2.79-8.65-2.79l43.87,66.37,5.65-1.69Zm379.07,142.29l6.35-8.39v-40.21l-6.36,3.13v45.48c-32.86,11.98-66.39,20.8-101.82,26.16l-14.58,7.77c69.28-8.57,123.82-30.65,124.39-30.87l5.87-8.31c-.13,.05-.26,.11-.38,.15-4.48,1.76-8.96,3.45-13.46,5.09Zm19.53-13.56l-5.69,8.31v76.78l5.66-1.67,.03-83.42Zm-11.34,86.76l37.9,57.37s-.09,.03-.13,.05c0,0,8.42,2.93,8.51,2.9-10.12-15.43-30.53-46.56-40.62-61.98l-5.65,1.67Zm-190.53,103.06c-150.64,0-237.46-42.8-237.46-42.8l-.14-.05s30.61-46.46,40.87-61.88l5.65,1.69v-70.25c38.74,14.53,80.35,25.15,124.36,30.7-4.62-4.5-7.98-8.65-11.13-12.93l-3.37,5.21c-39.87-6.1-79.04-16.76-115.46-31.18-.02,0-.03,0-.05-.02v76.78l-5.65-1.69-43.87,66.37,.37,.13s97.55,45.82,245.69,45.82h0c145.35,0,245.42-45.77,245.42-45.77l.43-.16-8.85-2.71s-86.16,42.75-236.8,42.75Zm182.32,2.04v63.65H84.26l-6.36,6.37H455.81v-77.76l-6.34,7.75h-.02ZM84.26,353.5l6.37-3.72v-49.69c-.06,.02-.11,.04-.17,.06l.1,.02-6.3,8.65v44.68Z"/>
      </g>
      <path class="cls-3" d="M108.27,575.98c2.13,0,4.27,0,6.41,0v-41.59c-2.14-.46-4.27-.92-6.41-1.4v42.98Zm33.36-8.6c-1.64-5.1-5.12-15.27-10.01-29.56-2.7-.51-5.4-1.04-8.1-1.58v39.76c1.92,0,3.84,0,5.77,0l-.03-27.8c2.33,7.72,5.64,17.6,9.6,27.81,2.81,0,5.62,0,8.43,0v-35.41c-1.93-.32-3.86-.65-5.79-.99,0,26.62-.03,16.11,.12,27.76Zm32.65-22.79c-6.14-.79-12.27-1.66-18.4-2.6,0,11.35,0,22.69,0,34.04,19.16,.02,18.55,.33,20.01-.92,1.53-1.32,2.24-3.48,2.24-5.45,0-18.7,.26-20.32-.77-22.86-.51-1.27-1.54-2.01-3.08-2.21h0Zm-2.52,24.9c-3.15-.1-6.3-.21-9.45-.32,0-5.68,0-13.63,0-19.31,3.15,.35,6.3,.68,9.45,.99v18.64Zm15.21,6.56c2.16,0,4.33,0,6.49,0,0-9.75,0-19.51,0-29.26-2.16-.22-4.33-.45-6.49-.69,0,9.98,0,19.96,0,29.94Zm21.88-27.86c-2.51,9.09-5.02,18.37-7.52,27.87,2.19,0,4.38,0,6.57,0,.44-1.71,.89-3.4,1.33-5.1,3.05,.05,6.11,.09,9.17,.13,.44,1.66,.88,3.32,1.32,4.98,2.19,0,4.39,0,6.58,0-2.48-8.9-4.95-17.93-7.43-27.14-3.34-.22-6.68-.47-10.02-.73h0Zm1.95,16.78c.9-3.48,1.8-6.94,2.69-10.37,.22,.01,.45,.03,.67,.04,.89,3.53,1.78,7.03,2.68,10.51-2.01-.06-4.03-.12-6.04-.18Zm41.41,4.2c-1.63-3.51-4.59-8.7-10.13-19.09-2.74-.09-5.47-.2-8.21-.33,0,8.77,0,17.54,0,26.31,1.95,0,3.9,0,5.85,0,0-17.88,.01-12.58-.03-19.12,2.39,5.13,3.46,7.99,9.72,19.13,2.84,0,5.68,0,8.53,0v-25.62c-1.95-.02-3.9-.06-5.85-.1,0,18.81,.03,13.74,.12,18.82Zm20.85-18.69c-2.51,8.55-5.03,17.07-7.54,25.59,2.2,0,4.39,0,6.59,0,.44-1.56,.89-3.12,1.33-4.69,3.06,0,6.12-.01,9.18-.03,.44,1.57,.88,3.14,1.32,4.71,2.2,0,4.39,0,6.59,0-2.48-8.65-4.96-17.22-7.43-25.75-3.35,.07-6.7,.13-10.04,.16Zm1.95,15.35c.9-3.25,1.8-6.5,2.7-9.76,.22,0,.45,0,.67,0,.89,3.24,1.79,6.48,2.68,9.73-2.02,.02-4.03,.03-6.05,.04Zm23.1-15.99v26.24c2.16,0,4.32,0,6.48,0v-5.92c3.61-.04,7.23-.09,10.84-.15,.92-.01,1.67-.26,2.27-.75,1.26-1.03,1.85-2.68,1.85-4.22v-11.2c0-1.63-.27-2.9-.81-3.79-1.18-1.94-1.39-1.04-20.63-.21h0Zm15.1,14.17c-2.87,.08-5.75,.16-8.62,.22v-9.54c2.88-.11,5.75-.24,8.62-.38v9.7Zm33.91-17.94c-5.12,.57-10.25,1.08-15.38,1.54-2.85,.26-4.01,2.2-4.01,5.1,0,19.32-.22,19.4,.65,21.01,.43,.81,1.01,1.4,1.74,1.77,1.46,.75,.89,.57,15.98,.56,3.17,0,4.91-3.22,4.91-6.28v-17.51c0-2.06-.26-3.66-.79-4.78-.53-1.13-1.56-1.59-3.1-1.42Zm-2.49,23.94c-3.51,.09-7.02,.18-10.53,.26v-17.03c3.51-.25,7.02-.51,10.53-.8v17.58Zm21.41-26.3c-2.15,.3-4.29,.58-6.44,.86v31.48c6.72,0,13.44,0,20.15-.02v-7.17c-4.56,.18-9.13,.34-13.7,.5v-25.65h0Zm22.15,32.31c2.15,0,4.3,0,6.45,0v-36.83c-2.15,.38-4.3,.76-6.45,1.12v35.71h0Zm37.21-29.65c0-8.57,.49-13.46-4.5-12.38-13.8,2.99-14.86,2.46-16.4,4.88-.73,1.15-1.09,2.87-1.1,5.2,0,8.44-.6,11.42,2.75,12.78,4.32,1.41,8.64,2.93,12.94,4.55v6.37c-3.12,.15-6.24,.3-9.37,.44v-5.19c-2.11,.15-4.21,.3-6.32,.45,0,5.91-.52,9.63,2.38,11.75,1.42,1.04,.95,.78,14.76,.76,5.66,0,4.85-8.93,4.85-14.12,0-4.33-.1-7.23-2.84-8.12-4.27-1.45-8.55-2.79-12.83-4.04v-5.66c3.13-.49,6.25-.99,9.37-1.51v4.75c2.1-.3,4.2-.6,6.3-.91h0Z"/>
      <g>
        <path class="cls-2" d="M312.6,62.67c0,25.83-20.94,46.77-46.78,46.77s-46.77-20.94-46.77-46.77,20.94-46.77,46.77-46.77,46.78,20.94,46.78,46.77h0Z"/>
        <path class="cls-5" d="M277.72,76.04h4.94l-.25-7.12-4.69,7.12h0Zm18.76-.1h4.91l-.24-7.09-4.68,7.09h0Zm5.32,8.56h5.4c-7.84,14.84-23.43,24.95-41.38,24.95-25.83,0-46.77-20.94-46.77-46.77s20.94-46.77,46.77-46.77,46.78,20.94,46.78,46.77c0,6.92-1.5,13.48-4.19,19.39l-1.35-19.71h-12.14l-1.43,5.06h1.89l-5.99,9.5-.84-14.56h-12.31l-1.4,5.04,1.88,.02-8.03,12.2-6.62-.03c-.69,0-3.37-.64-3.37-3.95s3.16-8.13,6.36-8.13l1.35,.03c-.23,.82-.7,2.51-.7,2.51h5.89l2.12-7.69h-9.08c-5.65,0-10.21,4.03-11.65,8.19l2.36-8.19h-8.08l-1.42,5.06h2.09s-2.1,7.4-2.1,7.4l-5.3-12.46h-7.54l-1.42,5.06h2.07l-4.69,17.09h6.04s2.34-8.48,2.94-10.65c.86,2.06,4.41,10.65,4.41,10.65h6.73l3.09-10.86c-.28,1.62-.29,3.31,0,4.98,.59,3.56,4.05,5.88,7.83,5.88h12.21l2.11-3.19h8.62l.18,3.19h7.61l1.97-3.19h8.82l.35,3.19h0Z"/>
        <g>
          <path class="cls-5" d="M315.58,88.28c0,1.64-1.33,2.97-2.97,2.97s-2.97-1.33-2.97-2.97,1.3-2.97,2.97-2.97,2.97,1.3,2.97,2.97h0Zm-2.97-3.77c-2.08,0-3.77,1.69-3.77,3.77s1.69,3.77,3.77,3.77,3.77-1.69,3.77-3.77-1.65-3.77-3.77-3.77h0Z"/>
          <path class="cls-5" d="M313.58,87.47c0,.37-.35,.62-.67,.62h-.98v-1.26h.98c.32,0,.67,.25,.67,.65h0Zm.85,0c0-.85-.79-1.38-1.51-1.38h-1.81v4.4h.83v-1.66h.53l1.09,1.66h1.01l-1.14-1.71c.36-.09,1.01-.45,1.01-1.32h0Z"/>
        </g>
      </g>
      <g>
        <path class="cls-3" d="M121.27,100.91c-5.96,1.41-11.89,2.92-17.82,4.51v-7.08c4.12-8.23,8.25-17,12.39-24.12v-5.68c-2.37,.12-4.74,.24-7.11,.36v6.21c-1.77,.15-3.54,.3-5.31,.45,0-6.68-.57-13.86,4-13.86,9.5-.01,10.61-.29,11.97,.84,.68,.57,1.15,1.44,1.42,2.62,.57,2.56,.45,8.75,.28,10.21-.32,2.69-1.22,3.27-10.59,21.15,3.59-.74,7.18-1.46,10.78-2.14v6.54Z"/>
        <path class="cls-3" d="M131.46,97.87c-.65-.33-1.16-.99-1.53-1.99-.74-1.99-.56-2.05-.56-27.83,0-3.02,.77-6.38,3.78-6.39,3.83,0,7.67,0,11.51-.01,3.27,0,3.8,3.61,3.8,6.89,0,20.27,.66,23.1-2.02,26.02-.67,.73-1.48,1.2-2.4,1.38-11.3,2.25-11.19,2.65-12.59,1.93Zm3.16-6.48c2.83-.48,5.66-.94,8.49-1.39v-22.15c-2.83,.12-5.66,.25-8.49,.38v23.16Z"/>
        <path class="cls-3" d="M174.77,90.62c-6.03,.89-12.05,1.87-18.06,2.94,0-2,0-2.86,0-4.86,4.18-5.96,8.37-12.64,12.56-17.84,0-1.12,0-3.36,0-4.48-2.4,.08-4.81,.15-7.21,.24v4.85c-1.8,.1-3.59,.2-5.38,.3,0-1.26,0-2.52,0-3.78,0-3.44,.64-6.34,4.05-6.34,9.61,0,10.75-.21,12.13,.62,1.65,1,1.84,3.33,1.84,5.26,0,3.1,.11,4.4-.65,5.59-.66,1.03-3.45,5.14-10.21,14.36,3.64-.49,7.28-.95,10.93-1.38,0,1.89,0,2.65,0,4.54Z"/>
        <path class="cls-3" d="M187.51,88.87c-3.23,.41-4.53-1.76-4.53-5.02,0-17.42-.37-19.44,1.11-21.04,.74-.8,1.76-1.19,3.07-1.19,4.33,0,8.67,0,13.01,0v4.26c-3.95,.09-7.9,.19-11.85,.29v5.85c3.22-.16,6.44-.3,9.67-.44,2.81-.12,3.62,1.84,3.62,4.66,0,5.12,.59,8.46-1.83,10.48-1.4,1.16-2.04,.85-12.27,2.15h0Zm8.72-5.36v-6.94c-2.64,.17-5.28,.35-7.91,.54v7.14c2.64-.26,5.27-.51,7.91-.75Z"/>
        <path class="cls-3" d="M349.81,89.1c0-11.45-.07-14.02,.21-21.46,.07,.06,.14,.12,.21,.18-.89,4.02-1.42,7.46-4.85,20.72-2.03-.25-4.05-.49-6.08-.72-3.91-15.46-2.51-10.57-4.96-20.71,.07-.04,.14-.08,.21-.11,.32,5.3,.21,12.1,.21,20.32-1.63-.17-3.26-.34-4.89-.5v-25.22c2.39,0,4.79,0,7.18,0,1.74,6.5,3.47,13.14,5.21,19.93,.08,0,.16,.01,.25,.02,1.66-6.5,3.33-13.15,4.99-19.95,2.39,0,4.78,0,7.16,0v28.12c-1.61-.22-3.23-.44-4.84-.65h0Z"/>
        <path class="cls-3" d="M359.88,90.85v-29.22c5.23,0,10.46,0,15.68,.01v5.18c-3.44-.12-6.88-.24-10.32-.35v7.19c2.5,.16,4.99,.33,7.49,.5v6.16c-2.49-.26-4.99-.5-7.49-.74v7.28c3.44,.44,6.88,.9,10.32,1.39v5.18c-5.22-.92-10.44-1.77-15.68-2.56Z"/>
        <path class="cls-3" d="M400.05,98.66c-2.3-.51-4.61-1-6.91-1.49-5.22-16.39-4.89-14.33-6.04-18.9-1.03-4.1-1.57-7.54-2.04-9.61,.12-.03,.23-.06,.35-.09,.12,8.11,.09,12.16,.1,27.06-1.56-.31-3.11-.6-4.67-.9,0-11.03,0-22.05,0-33.08,2.2,0,4.39,0,6.59,0,6.01,17.93,5.67,18.61,8.52,30.63-.12,.02-.23,.03-.35,.05-.31-11.44-.24-9.32-.24-30.67,1.56,0,3.13,0,4.69,0,0,12.33,0,24.66,0,36.99h0Z"/>
        <path class="cls-3" d="M404.25,73.2v-11.52c1.64,0,3.28,0,4.92,0v6.01c-1.64,1.89-3.28,3.73-4.92,5.51Z"/>
        <path class="cls-3" d="M430.24,96.88c0,3.6-.77,8.24-4.24,7.34-9.83-2.56-9.86-2.16-11.21-3.61-2.7-2.89-2.06-8.77-2.06-13.4,1.73,.27,3.46,.54,5.19,.82v7.23c2.37,.47,4.74,.95,7.11,1.44v-7.31c-3.3-2.62-6.6-5.1-9.91-7.45-2.16-1.68-2.39-3.94-2.39-6.87,0-7.06-.25-10.01,1.04-11.88,.69-1,1.66-1.52,2.91-1.51,9.87,.01,10.75-.32,11.96,1.01,.61,.67,1.03,1.68,1.26,3.02,.23,1.35,.34,3.01,.34,4.98v5.5c-1.73-.16-3.47-.31-5.2-.46v-6.79c-2.37-.12-4.74-.25-7.11-.36v6.36c3.32,2.2,6.63,4.53,9.94,6.99,.64,.57,1.14,1.16,1.48,1.79,1.13,2.05,.9,5.7,.9,13.15Z"/>
      </g>
      <g>
        <path class="cls-6" d="M423.53,454.06c0,1.88-1.53,3.41-3.41,3.41s-3.41-1.53-3.41-3.41,1.5-3.41,3.41-3.41,3.41,1.5,3.41,3.41h0Zm-3.41-4.32c-2.38,0-4.32,1.94-4.32,4.32s1.94,4.32,4.32,4.32,4.32-1.94,4.32-4.32-1.9-4.32-4.32-4.32h0Z"/>
        <path class="cls-6" d="M421.22,453.13c0,.42-.4,.71-.77,.71h-1.12v-1.45h1.12c.37,0,.77,.28,.77,.75h0Zm.97,0c0-.98-.9-1.58-1.74-1.58h-2.08v5.05h.95v-1.91h.61l1.25,1.91h1.16l-1.31-1.96c.41-.1,1.16-.52,1.16-1.51h0Z"/>
      </g>
      <g>
        <path class="cls-2" d="M128.72,245.14c2.76-.71,4.48-3.47,3.91-6.27-2.06-10.13-4.31-21.17-6.3-30.93,6.4-1.57,12.83-3.04,19.28-4.4,2.44-.51,4.21-2.62,4.28-5.11,.15-5.24,.34-12.05,.45-15.91,0,0-18.68,3.96-27.92,6.22-.07-.3-4.55-22.31-4.55-22.31,9.01-2.28,18.06-4.33,27.17-6.18,2.81-.57,4.67-3.26,4.22-6.1-.77-4.86-1.69-10.71-2.26-14.25-19.4,3.75-38.6,8.41-57.56,13.98,5.98,25.08,16.75,70.24,22.84,95.79,5.45-1.6,10.94-3.11,16.44-4.53Zm115.55-17.06c2.93-.12,5.22-2.57,5.15-5.5-.35-13.64-1.27-48.85-1.27-48.85,3.13,6.83,13.73,29.96,23.3,50.84,.86,1.89,2.74,3.1,4.81,3.13,5.43,.09,10.86,.26,16.28,.5,1.23-32.38,2.54-66.69,3.77-99.11-7.8-.36-15.6-.58-23.41-.65l.43,55.07c-8.71-18.55-25.73-54.8-25.73-54.8-7.88,.24-15.75,.63-23.62,1.17,1.82,32.39,3.73,66.64,5.54,98.99,4.91-.33,9.82-.6,14.74-.8Zm80.77-2.09c1.03-4.21,2.97-12.19,2.97-12.19,5.83,.63,11.65,1.32,17.45,2.13,.11,4.09,.47,17.3,.47,17.3,7.46,1.06,14.89,2.29,22.29,3.67-.3-11.08-1.96-72.26-2.62-96.29-.07-2.6-1.99-4.78-4.56-5.16-11.87-1.79-23.8-3.23-35.76-4.33-7.77,31.93-15.98,65.67-23.73,97.58,5.94,.37,11.86,.83,17.78,1.39,2.65,.25,5.07-1.49,5.7-4.08Zm18.65-76.65l1.27,46.62c-4.07-.54-8.16-1.04-12.25-1.5l10.98-45.13Zm-169.35,5.69c2.32,18.51,5.1,40.98,7.4,59.34-4.97,.74-9.93,1.55-14.88,2.43,.78,5.27,2.07,14.06,2.85,19.38,14.98-2.68,30.08-4.73,45.24-6.14,3.57-.42,5.1-2.2,4.85-5.72-.42-6.05-1-14.27-1-14.28-4.9,.41-9.79,.88-14.67,1.42,0,0-3.77-41.11-5.47-59.65,3.57-.4,7.15-.77,10.73-1.11,2.9-.27,5.06-2.81,4.85-5.72-.34-4.87-.75-10.7-1-14.28-19.41,1.64-38.74,4.2-57.91,7.64,.71,4.86,2.14,14.52,2.84,19.38,5.37-.98,10.76-1.87,16.15-2.7Zm249.51,89.4c1.12-4.66,2.39-9.96,3.26-13.6,0,0,0,0,0,0-8.33-2.43-16.7-4.67-25.12-6.71,0,0,10.53-52.63,15.52-77.53,0-.01-16.04-3.77-24.11-5.42-5.32,31.9-10.95,65.6-16.27,97.47,13.47,2.73,26.81,5.97,40.03,9.71,2.93,.83,5.96-.95,6.67-3.92Zm-93.9,159.74v-.03c-7.69,.81-15.38,1.49-23.1,1.98,1.18,22.63,3.55,68.29,4.07,78.37,.06,1.11-.79,2.05-1.89,2.13-5.49,.35-10.99,.63-16.49,.84-1.13,.04-2.07-.85-2.1-1.97-.26-10.17-1.45-55.69-2.04-78.27v-.17c-8.11,.27-16.22,.38-24.34,.31-.25,29.13-.5,61.34-.75,90.43,.06,0,14.04,9.84,14.06,9.85,16.07-.2,32.14-1.02,48.15-2.41h0s0-.02,0-.02h0s12.04-11.1,12.04-11.1c-.49-5.75-1.57-18.49-2.06-24.34-1.71-20.17-3.86-45.44-5.57-65.61Zm-207.39-15.64c-6.76,31.72-14.05,65.95-20.8,97.63v.02c6.76,1.78,13.55,3.45,20.37,5.01,3.08,.7,6.13-1.28,6.68-4.35,1.61-9.03,3.54-19.81,4.98-27.89,6.93,1.49,13.87,2.87,20.85,4.12,2.51,.45,5.02-.84,6.05-3.15l6.71-15c-10.07-1.66-20.09-3.57-30.06-5.73,0,0-.01,0-.02,0l4.57-25.64c8.76,1.92,17.56,3.63,26.41,5.14,3.09,.53,6-1.58,6.41-4.65l1.87-14.06c-14.36-2.32-28.6-5.2-42.73-8.61-3.77-.91-7.53-1.86-11.28-2.85Zm115.79,18.04c-12.99-.67-25.95-1.78-38.84-3.35,0,0,0,0,0,0-.11,.07-13.21,8.01-13.3,8.08-2.99,25.44-6.39,54.5-9.37,79.88l.06,.06s12.66,11.67,12.71,11.71h0s0,0,0,0c14.72,1.77,29.49,3.07,44.3,3.84h0s0,0,0,0c.01,0,.02,0,.03,0l14.54-9.25s1.47-54.92,2.16-80.53c-.01,0-12.24-10.42-12.26-10.43-.02,0-.03,0-.04,0Zm-15.49,78.14c-.15,.94-.72,1.51-1.64,1.43-4.95-.39-12.24-1.08-15.35-1.38-.83-.08-1.44-.81-1.37-1.64,1.38-16.6,4.16-49.81,4.79-57.35,.07-.85,.82-1.47,1.67-1.38,4.63,.47,9.28,.84,13.93,1.19,.83,.06,1.46,.78,1.41,1.61-.45,7.45-2.44,40.79-3.44,57.53Zm206.58-2.56c-5.7-8.08-20.78-29.42-20.88-29.62,0,0,8.56-9.73,11.72-13.32-1.9-9.35-8.05-39.76-8.05-39.76-.08-.06-12.71-7.1-12.71-7.11-18.71,4.38-37.65,7.82-56.72,10.28,3.33,32.37,6.95,67.29,10.28,99.62,.17,.01,10.79-1.4,20.92-3.05,3.5-.57,5.9-3.78,5.42-7.24-1.24-8.99-2.7-19.61-3.8-27.6,3.89-.67,8.56-1.54,8.6-1.55l20.48,30.63c6.12-1.3,16.17-3.72,22.43-5.25,2.71-.66,3.9-3.79,2.31-6.05Zm-37.17-41.31c-6.44,1.31-12.91,2.51-19.39,3.62h0s-3.56-25.79-3.56-25.79c6.21-1.06,12.4-2.23,18.57-3.49,.85-.17,1.67,.38,1.81,1.24,.77,4.62,3.03,18.2,3.77,22.67,.13,.81-.4,1.58-1.2,1.75Z"/>
        <path class="cls-6" d="M176.35,225.13l-6.63,11.06c14.98-2.68,30.08-4.73,45.24-6.14,3.57-.42,5.1-2.2,4.85-5.72-.42-6.01-.99-14.16-1-14.27h0c-1.19,1.92-6.8,10.44-6.8,10.44-11.29,1.09-23.74,2.69-35.66,4.63Zm-64.07,24.54c5.46-1.6,10.94-3.11,16.44-4.53,2.76-.71,4.48-3.47,3.91-6.27-2.06-10.13-4.31-21.17-6.3-30.93,6.4-1.57,12.83-3.04,19.28-4.4,2.44-.51,4.21-2.62,4.28-5.11,.15-5.24,.34-12.05,.45-15.91-.02,0-7.04,11.51-7.04,11.51-10.11,2.12-20.35,4.59-30.34,7.24l9.46-12.53c-.07-.3-4.55-22.31-4.55-22.31,9.01-2.28,18.06-4.33,27.17-6.18,2.81-.57,4.67-3.26,4.22-6.1-.77-4.86-1.69-10.71-2.26-14.25-.09,.16-5.78,11.13-5.78,11.13-12.56,2.59-25.02,5.58-37.4,8.95,5.51,24.91,17.06,77.1,17.05,77.11l-8.58,12.57Zm131.99-21.59c2.93-.12,5.22-2.57,5.15-5.5-.33-12.65-1.14-43.84-1.25-48.31,0-.18-.01-.36-.02-.54,0,0-11.68-24.98-11.8-24.97,.91,22.28,2.87,69.74,2.88,69.75-.01,0-9.71,10.37-9.71,10.37,4.91-.33,9.82-.6,14.74-.8Zm173.24-81.49s-.03,0-.05,.02c-.16,.07-13.61,6.87-13.63,6.87-4.61,25.13-9.68,52.72-14.29,77.79,2.4-1.43,10.18-5.8,12.45-7.15,0,0,10.53-52.62,15.52-77.53Zm6.33,97.84c1.12-4.66,2.39-9.96,3.26-13.6-.02,0-12.31,6.7-12.31,6.7-8.33-2.28-16.83-4.38-25.25-6.26-.17,.1-12.23,7.26-12.4,7.36,13.47,2.73,26.81,5.97,40.03,9.71,2.93,.83,5.96-.95,6.67-3.92Zm-104.65-41.33c-1.12,4.65-2.87,11.8-4,16.45,.03,.04-13.63,9.09-13.64,9.13,5.94,.37,11.86,.83,17.78,1.39,2.65,.25,5.07-1.49,5.7-4.08,1.03-4.21,2.97-12.19,2.97-12.19,0,0,0,0,0,0v-.05s.06,.06,.06,.06c5.14,.55,10.28,1.17,15.39,1.86,.66,.09,1.32,.17,1.97,.26l10.9-8.21-37.14-4.62Zm-115.05,8.38s0,0,0-.01c-.01-.13-3.77-41.13-5.47-59.65,3.57-.4,7.15-.77,10.73-1.11,2.9-.27,5.06-2.81,4.85-5.72-.34-4.87-.75-10.7-1-14.28l-7.06,10.41s-13.76,1.52-20.64,2.43c0,.01,5.75,53.56,8.49,78.98-.02,0,8.4-9.16,10.1-11.06Zm68.93,15.1c.9,.69,2.01,1.11,3.2,1.13,5.43,.09,10.86,.26,16.28,.5,1.23-32.38,2.54-66.69,3.77-99.11l-11.83,9.33c-.49,20.63-1.02,45.04-1.51,65.61-3.14-6.68-6.37-13.55-9.64-20.52-7.79-16.59-22.21-47.31-25.18-53.64-.18-.38-.36-.76-.54-1.14l-5.59,9.81c11.98,25.82,24.87,53.64,36.83,79.41,0,0-4.44,6.62-5.78,8.62Zm70.62-77.23l10.92-4.95c-6.82-.97-13.66-1.82-20.51-2.56-4.65,19.09-10.27,42.24-14.91,61.27,.04,0,13.27-8.48,13.52-8.63l10.98-45.13Zm-169.35,5.7s0,0,0,0l11.16-11.48c-6.12,.81-13.76,1.93-20.78,3.1l-6.54,11.07h0c5.37-.97,10.76-1.86,16.15-2.69,0,0,0,0,0,0Zm191.26-14.43c-.04-1.42-.63-2.72-1.58-3.66l-9.41,7.45c.05,0,2.03,74.6,2.18,80.29,.08,.09-10.86,8.55-10.86,8.55,7.46,1.06,14.89,2.29,22.29,3.67-.3-11.08-1.96-72.26-2.62-96.29ZM165.71,408.21c-11.33-2.03-22.59-4.38-33.78-7.08-2.32,11.85-6.53,33.35-8.86,45.2l14.24-7.1h0s0,0,0,0l4.57-25.64c8.76,1.92,17.56,3.63,26.41,5.14,3.09,.53,6-1.58,6.41-4.65l1.87-14.06c-10.92,8.11-10.86,8.2-10.86,8.2Zm-63.96,77.98h0s0,0,0,0h0Zm0,0c6.76,1.78,13.56,3.45,20.37,5.01,3.08,.7,6.13-1.28,6.68-4.35,1.61-9.03,3.54-19.81,4.98-27.89,6.93,1.49,13.87,2.87,20.85,4.12,2.51,.45,5.02-.84,6.05-3.15l6.7-14.98c-1.56,.88-13.2,8.11-13.29,7.91-10.37-1.92-20.76-4.1-31.01-6.55l-6.5,33.16-14.82,6.71Zm96.34-68.35c-2.19,21.89-4.8,48.19-6.98,69.99,.14-.03,8.64-2.38,13.64-3.72-.19-.28-.29-.61-.26-.97,1.38-16.6,4.16-49.81,4.79-57.35,.07-.85,.82-1.47,1.67-1.38,4.63,.47,9.28,.84,13.93,1.19,.1,0,.21,.03,.3,.05,.01,0,.03,.01,.04,.02,.08,.03,.16,.06,.24,.09,0,0,0,0,.01,0,.17,.09,.32,.21,.45,.36h0s6.38-9.88,6.38-9.88c-8.79-.56-16.91-1.27-27.73-2.43-.1,.05-6.4,3.99-6.49,4.04Zm78.49-.6c.21,23.77,.44,51.62,.66,75.33l13.78-5.73c-.34-.35-.55-.82-.57-1.34-.26-10.17-1.45-55.86-2.04-78.44,0,0-11.81,10.18-11.82,10.18Zm92.73,1.45c6.21-1.06,12.4-2.23,18.57-3.49,.4-.08,.79,0,1.11,.2l5.45-11.73c-12.8,2.82-25.7,5.22-38.67,7.16,1.45,11.99,4.05,33.73,5.5,45.72,0,0,11.58-12.09,11.59-12.08l-3.56-25.78Zm-137-2.45s5.38,5.4,5.41,5.43l-3.13,69.8-6.23,5.11c-10.49-.65-31.41-2.7-31.41-2.7-.03-.03-5.82-6.01-5.85-6.04l-14.28,3.37,.06,.06,12.71,11.71h0s0,0,0,0c14.72,1.77,29.49,3.07,44.3,3.84h0s0,0,0,0c.01,0,.02,0,.03,0l14.54-9.25s0-.02,0-.05c0,0,0,0,0,0,.03-1.19,.06-2.41,.1-3.62,.29-10.81,1.16-43.27,1.77-66.02,.03-.96,.05-1.92,.08-2.87,0-.09,0-.17,0-.26,.03-1.25,.07-2.5,.1-3.74,.04-1.39,.07-2.71,.11-3.97-.01,0-12.24-10.42-12.26-10.43-.07,0-6.05,9.59-6.08,9.64Zm133.06,74.32c-.05-.05-12.26,11.72-12.31,11.72,3.32-.43,6.64-.89,9.97-1.37,.43-.06,.87-.13,1.32-.19,1.2-.18,2.4-.36,3.6-.54,.46-.07,.92-.14,1.39-.21,1.55-.24,3.1-.48,4.64-.74,3.5-.57,5.9-3.78,5.42-7.24-1.24-8.99-2.7-19.61-3.8-27.6,3.89-.67,8.56-1.54,8.6-1.55,.11-.15,7.92-11.53,8.02-11.67-10.25,2.06-20.61,3.86-30.95,5.39,1.19,9.93,4.1,34,4.1,34Zm64.06-8.38c-5.7-8.08-20.78-29.42-20.88-29.62,0,0,8.56-9.73,11.72-13.32-.08-.38-.16-.79-.25-1.21-2.13-10.51-7.81-38.55-7.81-38.55-.08-.06-12.71-7.1-12.71-7.11l-5.05,11.29s7.65,2.67,7.65,2.67c1,5.38,5.17,27.73,6.21,33.36,0,0-7.66,9.59-7.75,9.75,0,0-4.46,.96-8.34,1.73,0,0,16.7,23.8,21.23,30.22,0,0,.01,0,.02,0v.02s0,0,0,0h-.01s-8.77,12.07-8.77,12.07c6.12-1.3,16.17-3.72,22.43-5.25,2.71-.66,3.9-3.79,2.31-6.05Zm-99.48-77.98l-10.59,10.94h0s-.01,.01-.02,.02c1.63,23.75,3.55,51.55,5.17,75.24-.11,.11-6.11,5.41-6.21,5.52-11.44,.9-22.89,1.43-34.36,1.71-.02-.02-6.71-5.02-6.73-5.03l-13.9,5.22c.06,0,14.04,9.84,14.06,9.85,16.07-.2,32.14-1.02,48.15-2.41l12.05-11.11c-.49-5.75-1.57-18.49-2.06-24.34-1.71-20.17-3.86-45.44-5.57-65.61Z"/>
      </g>
      <g>
        <path class="cls-2" d="M331.56,293.55l97.35,.12c-13.72-4.47-27.26-8.26-40.59-11.45l-55.1-.07c-12.62-23.6-37.5-39.7-66.09-39.7s-53.47,16.1-66.09,39.7l-52.9,.07c-14.95,3.51-28.74,7.43-41.24,11.45l95.81-.12c8.86,4.68,14.31,13.69,14.31,23.79,0,8.28-3.66,15.81-9.85,20.84-2.28-6.53-3.53-13.54-3.53-20.84,0-4.4,.45-8.7,1.31-12.86-1.2-1.37-2.6-2.59-4.19-3.61,0,0-2.6,0-6.69,.01-1.19,5.3-1.82,10.8-1.82,16.45,0,8.31,1.37,16.3,3.88,23.78l-93.57-.11c13.22,4.42,26.28,8.22,39.16,11.45l63.62,.08c13.51-6.4,20.86-17.11,22.67-29.5h11.71c2.29,11.01,11.06,19.67,22.13,21.8v35.77c-18.78-1.56-35.25-11.32-45.84-25.68-2.36,1.61-7.63,4.85-10.48,4.93,19.64,28.39,49.83,32.02,61.78,32.29,22.26,.49,46.62-10.87,61.45-32.29-2.84-.07-8.14-3.32-10.48-4.93-10.59,14.36-27.07,24.13-45.84,25.68v-35.77c11.07-2.13,19.84-10.78,22.13-21.8h11.71c1.8,12.3,9.09,23.06,22.67,29.5h.02s0,0,0,0l64.24-.08c14.43-3.56,27.72-7.47,39.74-11.45l-94.79,.11c4.37-13.02,5.04-26.96,2.06-40.23-4.09,0-6.69-.01-6.69-.01-1.59,1.02-2.99,2.23-4.19,3.61,2.23,10.78,1.7,22.46-2.22,33.69-14.64-11.91-12.78-35.51,4.47-44.63h0Zm-91.85,18.1h-11.71c-1.54-10.49-7.29-19.74-15.99-25.76,10.06-17.56,28.26-29.88,49.42-31.78v35.81c-10.88,2.26-19.46,10.84-21.72,21.72Zm66.54,0h-11.71c-2.26-10.88-10.84-19.46-21.72-21.72v-35.81c21.16,1.89,39.36,14.22,49.42,31.78-8.7,6.02-14.45,15.26-15.99,25.76Z"/>
        <circle class="cls-7" cx="266.83" cy="317.44" r="16.91"/>
        <polygon class="cls-2" points="266.83 304.91 269.67 313.67 278.88 313.67 271.43 319.08 274.28 327.84 266.83 322.43 259.37 327.84 262.22 319.08 254.77 313.67 263.98 313.67 266.83 304.91"/>
        <path class="cls-6" d="M428.91,293.67c-13.72-4.47-27.26-8.26-40.59-11.45l-12.02-.02c6.1,2.74,12.93,6.49,18.95,11.42l33.65,.04Zm-33.41,47.38c-5.95,4.92-12.69,8.66-18.77,11.42l16.46-.02c14.43-3.56,27.72-7.47,39.74-11.45l-37.43,.05h0Zm-288.59-47.38l31.49-.04c6.02-4.93,12.85-8.68,18.95-11.42h-9.21c-14.95,3.52-28.74,7.44-41.24,11.46Zm-4.35,47.34c13.22,4.42,26.28,8.22,39.16,11.45l15.22,.02c-6.08-2.76-12.83-6.51-18.77-11.42l-35.61-.04Z"/>
      </g>
    </g>
  </g>
</svg>